Coordinates
version=1
nRows=24
nColumns=24
inDegrees=yes

Units are S.I. units (second, meters, Newtons, ...)
Angles are in degrees.

endheader
time	pelvis_tilt	pelvis_list	pelvis_rotation	pelvis_tx	pelvis_ty	pelvis_tz	hip_flexion_r	hip_adduction_r	hip_rotation_r	knee_angle_r	ankle_angle_r	subtalar_angle_r	mtp_angle_r	hip_flexion_l	hip_adduction_l	hip_rotation_l	knee_angle_l	ankle_angle_l	subtalar_angle_l	mtp_angle_l	lumbar_extension	lumbar_bending	lumbar_rotation
      1.17100000	      5.07257395	      4.50097811	     -2.13842073	      0.11023372	      1.02669643	      0.25690967	     11.47027111	     -4.18467271	     -2.06263319	    -59.96596515	      7.13630568	    -18.80034176	      1.16967223	      3.80722407	      6.94580661	     -0.02019860	    -11.44715473	      3.80806368	    -11.36273023	      4.82160123	    -15.10963054	     -6.29700047	      4.41647726
      1.17516667	      5.02598728	      4.38270858	     -2.11337241	      0.11537915	      1.02738491	      0.25674689	     11.92147263	     -3.96290861	     -1.95916911	    -59.13838963	      7.26430379	    -18.72979344	      1.17013771	      3.38832813	      6.84465435	      0.05982016	    -11.17758547	      3.91086655	    -11.38087732	      4.80254795	    -15.09438462	     -6.15362122	      4.33393098
      1.17933333	      5.03730896	      4.27362671	     -2.05679579	      0.12051405	      1.02813941	      0.25655496	     12.27837996	     -3.76353841	     -1.89845280	    -58.23111440	      7.32381766	    -18.69380799	      1.17371128	      2.88394664	      6.76349231	      0.25782636	    -10.86127958	      4.00517821	    -11.49983111	      4.74822767	    -15.15256376	     -6.03229608	      4.13356247
      1.18350000	      5.00760426	      4.16470574	     -2.00455710	      0.12568308	      1.02880837	      0.25638057	     12.66391424	     -3.55999601	     -1.82696447	    -57.26925659	      7.37688423	    -18.63792673	      1.18323864	      2.42971894	      6.67315676	      0.39791323	    -10.55623623	      4.09137019	    -11.56866442	      4.69882342	    -15.15356932	     -5.90267218	      3.98661510
      1.18766667	      4.98675140	      4.06840472	     -1.95411312	      0.13084971	      1.02944053	      0.25622684	     13.02675548	     -3.37181134	     -1.75584313	    -56.26160021	      7.40551078	    -18.59377494	      1.19736106	      1.96166892	      6.59377945	      0.53496515	    -10.23992411	      4.17371492	    -11.63054226	      4.64648403	    -15.16855932	     -5.78975737	      3.82496257
      1.19183333	      4.94228547	      3.95944673	     -1.88968986	      0.13603994	      1.03000858	      0.25606459	     13.39006007	     -3.17129362	     -1.69826280	    -55.19249504	      7.39964615	    -18.57066165	      1.21268955	      1.52207126	      6.49672564	      0.66972137	     -9.93324084	      4.26478279	    -11.67572947	      4.59626085	    -15.15200340	     -5.65785964	      3.66570849
      1.19600000	      4.91375057	      3.86569667	     -1.82760490	      0.14123352	      1.03055668	      0.25591374	     13.72160981	     -2.99215048	     -1.64396417	    -54.08063908	      7.37117828	    -18.55885580	      1.22844029	      1.06024088	      6.41415707	      0.79553883	     -9.61291696	      4.34999423	    -11.71139617	      4.54754137	    -15.15232138	     -5.54317785	      3.49914244
      1.20016667	      4.86050463	      3.77376436	     -1.76403337	      0.14643005	      1.03101067	      0.25577335	     14.06582961	     -2.81674306	     -1.59139328	    -52.92986817	      7.34483230	    -18.51790762	      1.23711128	      0.63679044	      6.32718674	      0.88198482	     -9.31439482	      4.42536188	    -11.71396602	      4.52013064	    -15.11927192	     -5.43078032	      3.37236693
      1.20433333	      4.80627186	      3.67953423	     -1.68557649	      0.15164780	      1.03143543	      0.25561341	     14.38750471	     -2.64586594	     -1.55999540	    -51.72867786	      7.26774183	    -18.53275839	      1.24323004	      0.20758495	      6.23863104	      0.99897233	     -9.00490138	      4.51599598	    -11.72468246	      4.49301266	    -15.08772381	     -5.30924338	      3.21079587
      1.20850000	      4.78074084	      3.61251801	     -1.61043685	      0.15684938	      1.03183964	      0.25547817	     14.66950185	     -2.50659100	     -1.52461492	    -50.50145374	      7.14462587	    -18.64631490	      1.25478247	     -0.27065694	      6.18172752	      1.16426974	     -8.65352914	      4.60730581	    -11.79430562	      4.44008533	    -15.09517264	     -5.22972951	      2.95612813
      1.21266667	      4.70070023	      3.53529899	     -1.53178579	      0.16208088	      1.03211460	      0.25533342	     14.99434265	     -2.36501753	     -1.50571938	    -49.24124139	      7.06555301	    -18.62894256	      1.25861595	     -0.66507978	      6.10492586	      1.24675179	     -8.35410225	      4.68050745	    -11.78797787	      4.41478087	    -15.02426002	     -5.12188858	      2.82661725
      1.21683333	      4.65041046	      3.45707606	     -1.44521935	      0.16730838	      1.03240130	      0.25518510	     15.26380378	     -2.22684406	     -1.49691656	    -47.93385958	      6.92651771	    -18.70525274	      1.25891925	     -1.10019767	      6.02809650	      1.35978358	     -8.03770623	      4.76961808	    -11.79684261	      4.38722781	    -14.99192831	     -5.01827434	      2.64512072
      1.22100000	      4.60529741	      3.41587212	     -1.36642630	      0.17252322	      1.03261799	      0.25506672	     15.52779731	     -2.12947223	     -1.47780841	    -46.62200138	      6.76352830	    -18.86026955	      1.25881249	     -1.55464663	      5.99296501	      1.51405036	     -7.68856091	      4.86417170	    -11.85813057	      4.33813113	    -14.97293600	     -4.96937057	      2.38147421
      1.22516667	      4.53706766	      3.36040871	     -1.28094728	      0.17776067	      1.03276703	      0.25493394	     15.79433328	     -2.02661190	     -1.47993623	    -45.27094421	      6.61825708	    -18.93948335	      1.25652193	     -1.97155391	      5.93787221	      1.63440855	     -7.36744221	      4.94994684	    -11.88361108	      4.29440263	    -14.91706729	     -4.89404123	      2.19040961
      1.22933333	      4.46929820	      3.29876558	     -1.19444516	      0.18300674	      1.03288005	      0.25480420	     16.04123564	     -1.92035226	     -1.48689947	    -43.88394511	      6.45494707	    -19.03393296	      1.25051160	     -2.38792761	      5.87403934	      1.74589809	     -7.04886302	      5.03667939	    -11.89650019	      4.25240034	    -14.86492565	     -4.80847345	      1.99763195
      1.23350000	      4.39929543	      3.24747737	     -1.11039314	      0.18825657	      1.03293979	      0.25468660	     16.27812295	     -1.83012523	     -1.49723604	    -42.47672057	      6.29078898	    -19.12675047	      1.24179908	     -2.80102196	      5.81986304	      1.85458680	     -6.73108624	      5.12194430	    -11.91284280	      4.20896743	    -14.80772418	     -4.73691067	      1.80000921
      1.23766667	      4.32153483	      3.20227990	     -1.02722853	      0.19351183	      1.03292762	      0.25457000	     16.51172605	     -1.75223027	     -1.51486145	    -41.05161657	      6.13122854	    -19.20749323	      1.23139741	     -3.20245284	      5.77099850	      1.95929047	     -6.41992998	      5.21186365	    -11.92511066	      4.16609178	    -14.73733132	     -4.67063442	      1.60708720
      1.24183333	      4.22943309	      3.16447159	     -0.94512599	      0.19877383	      1.03285305	      0.25446668	     16.74758087	     -1.68602405	     -1.53545136	    -39.60677063	      5.97335888	    -19.27289593	      1.22073947	     -3.58395865	      5.72805730	      2.06092367	     -6.11823361	      5.30231188	    -11.93123893	      4.12633118	    -14.65600416	     -4.61560139	      1.42611995
      1.24600000	      4.12506706	      3.12072388	     -0.87014979	      0.20407104	      1.03272627	      0.25436600	     16.98240903	     -1.62365898	     -1.57990447	    -38.14384548	      5.85469736	    -19.24094789	      1.21386407	     -3.94974533	      5.67608241	      2.11046299	     -5.82162122	      5.38143446	    -11.91044220	      4.10548194	    -14.54516510	     -4.54788018	      1.30319354
      1.25016667	      4.07466785	      3.09209209	     -0.78903954	      0.20931569	      1.03262024	      0.25429372	     17.14017832	     -1.57004667	     -1.59672171	    -36.64703497	      5.65702028	    -19.37005458	      1.20175351	     -4.37918026	      5.64112715	      2.24507258	     -5.51388377	      5.49338781	    -11.93259008	      4.06268645	    -14.50861869	     -4.50270207	      1.05927036
      1.25433333	      3.95345805	      3.05571924	     -0.70707319	      0.21459753	      1.03237388	      0.25422426	     17.36222316	     -1.51661049	     -1.63617885	    -35.13936069	      5.51268840	    -19.36015210	      1.19518440	     -4.71648978	      5.59380794	      2.33691149	     -5.23903062	      5.58687051	    -11.93182060	      4.02744062	    -14.39846861	     -4.45376504	      0.89958447
      1.25850000	      3.88315852	      3.03087634	     -0.63661125	      0.21988891	      1.03216275	      0.25417345	     17.51364409	     -1.47889530	     -1.67812065	    -33.61124700	      5.35785524	    -19.36834108	      1.19155116	     -5.11875750	      5.55944443	      2.42361173	     -4.94510468	      5.68791839	    -11.93774084	      3.98370781	    -14.32400216	     -4.41221258	      0.71273001
      1.26266667	      3.78267923	      2.99711507	     -0.55902644	      0.22518760	      1.03188096	      0.25413397	     17.67732700	     -1.43333881	     -1.72237803	    -32.05583357	      5.21842059	    -19.29907241	      1.19277995	     -5.47172001	      5.51190700	      2.50125653	     -4.68693465	      5.78530114	    -11.91726434	      3.95136594	    -14.23298288	     -4.35919660	      0.57591225
      1.26683333	      3.66335362	      2.98020959	     -0.50796935	      0.23053175	      1.03148313	      0.25412345	     17.86761512	     -1.41111186	     -1.78026329	    -30.52567915	      5.11200151	    -19.17014165	      1.19667369	     -5.81399113	      5.48351383	      2.52897523	     -4.41171175	      5.89901724	    -11.89025662	      3.93163651	    -14.08282779	     -4.32668982	      0.46894286
